<svg width="111" height="53" viewBox="0 0 111 53" fill="none" xmlns="http://www.w3.org/2000/svg">
<g filter="url(#filter0_d_19_214)">
<path d="M29.957 12.0391V14.4297H22.7734V12.0391H29.957ZM23.4414 4.9375V22H20.5938V4.9375H23.4414ZM32.1836 4.9375V22H29.3477V4.9375H32.1836ZM40.5864 19.4219V13.1055C40.5864 12.668 40.5239 12.3164 40.3989 12.0508C40.2817 11.7852 40.1059 11.5938 39.8716 11.4766C39.645 11.3516 39.3598 11.2891 39.0161 11.2891C38.6567 11.2891 38.352 11.3633 38.102 11.5117C37.8598 11.6602 37.6763 11.8633 37.5513 12.1211C37.4263 12.3711 37.3638 12.6602 37.3638 12.9883H34.6333C34.6333 12.4805 34.7348 11.9922 34.938 11.5234C35.1489 11.0547 35.4497 10.6367 35.8403 10.2695C36.2309 9.90234 36.7036 9.61328 37.2583 9.40234C37.813 9.19141 38.4302 9.08594 39.1098 9.08594C39.9223 9.08594 40.645 9.22266 41.2778 9.49609C41.9106 9.76172 42.4067 10.1953 42.7661 10.7969C43.1333 11.3906 43.3169 12.1719 43.3169 13.1406V19.0586C43.3169 19.6445 43.352 20.168 43.4223 20.6289C43.5005 21.082 43.6059 21.4766 43.7388 21.8125V22H40.9614C40.8364 21.6953 40.7427 21.3047 40.6802 20.8281C40.6177 20.3516 40.5864 19.8828 40.5864 19.4219ZM40.9497 14.2773L40.9614 16.0469H39.6489C39.2583 16.0469 38.9067 16.1016 38.5942 16.2109C38.2817 16.3125 38.0161 16.4609 37.7973 16.6562C37.5864 16.8438 37.4223 17.0742 37.3052 17.3477C37.1958 17.6211 37.1411 17.9219 37.1411 18.25C37.1411 18.6484 37.1958 18.9727 37.3052 19.2227C37.4223 19.4727 37.5903 19.6602 37.8091 19.7852C38.0356 19.9023 38.3091 19.9609 38.6294 19.9609C39.0669 19.9609 39.4458 19.8672 39.7661 19.6797C40.0942 19.4844 40.3442 19.25 40.5161 18.9766C40.6958 18.7031 40.7661 18.4531 40.727 18.2266L41.3481 19.3633C41.2856 19.6602 41.1684 19.9727 40.9966 20.3008C40.8325 20.6289 40.6177 20.9414 40.352 21.2383C40.0864 21.5352 39.7661 21.7773 39.3911 21.9648C39.0161 22.1445 38.5825 22.2344 38.0903 22.2344C37.3794 22.2344 36.7466 22.0859 36.1919 21.7891C35.6372 21.4922 35.1997 21.0664 34.8794 20.5117C34.5669 19.9492 34.4106 19.2773 34.4106 18.4961C34.4106 17.8633 34.5161 17.2891 34.727 16.7734C34.938 16.2578 35.2505 15.8164 35.6645 15.4492C36.0786 15.0742 36.5981 14.7852 37.2231 14.582C37.8559 14.3789 38.5942 14.2773 39.438 14.2773H40.9497ZM50.2197 15.9414H48.0634V14.5H49.7744C50.1259 14.5 50.4033 14.4375 50.6064 14.3125C50.8095 14.1797 50.9541 13.9961 51.04 13.7617C51.1338 13.5195 51.1806 13.2422 51.1806 12.9297C51.1806 12.6562 51.1338 12.3945 51.04 12.1445C50.9541 11.8867 50.8056 11.6797 50.5947 11.5234C50.3838 11.3672 50.0908 11.2891 49.7158 11.2891C49.4033 11.2891 49.122 11.3594 48.872 11.5C48.6298 11.6328 48.4384 11.8203 48.2978 12.0625C48.165 12.3047 48.0986 12.5859 48.0986 12.9062H45.3681C45.3681 12.1172 45.5595 11.4375 45.9423 10.8672C46.333 10.2969 46.8486 9.85938 47.4892 9.55469C48.1377 9.25 48.8486 9.09766 49.622 9.09766C50.2861 9.09766 50.8798 9.17969 51.4033 9.34375C51.9345 9.5 52.3838 9.73438 52.7509 10.0469C53.1259 10.3516 53.4111 10.7344 53.6064 11.1953C53.8017 11.6484 53.8994 12.1758 53.8994 12.7773C53.8994 13.207 53.8134 13.6133 53.6416 13.9961C53.4775 14.3789 53.2314 14.7188 52.9033 15.0156C52.583 15.3047 52.1963 15.5312 51.7431 15.6953C51.29 15.8594 50.7822 15.9414 50.2197 15.9414ZM48.0634 15.1211H50.2197C50.8447 15.1211 51.3994 15.1953 51.8838 15.3438C52.3681 15.4844 52.7744 15.6953 53.1025 15.9766C53.4306 16.2578 53.6806 16.6055 53.8525 17.0195C54.0244 17.4258 54.1103 17.8945 54.1103 18.4258C54.1103 19.0195 54.0009 19.5547 53.7822 20.0312C53.5634 20.5 53.2548 20.8984 52.8564 21.2266C52.458 21.5547 51.9853 21.8047 51.4384 21.9766C50.8916 22.1484 50.2861 22.2344 49.622 22.2344C48.8955 22.2344 48.1923 22.0938 47.5127 21.8125C46.8408 21.5312 46.2861 21.0977 45.8486 20.5117C45.4189 19.918 45.2041 19.1602 45.2041 18.2383H47.9345C47.9345 18.5508 48.0009 18.8477 48.1338 19.1289C48.2744 19.4023 48.4775 19.625 48.7431 19.7969C49.0088 19.9688 49.333 20.0547 49.7158 20.0547C50.1064 20.0547 50.4189 19.9727 50.6533 19.8086C50.8955 19.6367 51.0752 19.418 51.1923 19.1523C51.3095 18.8789 51.3681 18.5898 51.3681 18.2852C51.3681 17.8711 51.3095 17.5391 51.1923 17.2891C51.0752 17.0312 50.8994 16.8438 50.665 16.7266C50.4306 16.6016 50.1338 16.5391 49.7744 16.5391H48.0634V15.1211ZM61.8452 19.4219V13.1055C61.8452 12.668 61.7827 12.3164 61.6577 12.0508C61.5405 11.7852 61.3647 11.5938 61.1303 11.4766C60.9038 11.3516 60.6186 11.2891 60.2748 11.2891C59.9155 11.2891 59.6108 11.3633 59.3608 11.5117C59.1186 11.6602 58.935 11.8633 58.81 12.1211C58.685 12.3711 58.6225 12.6602 58.6225 12.9883H55.892C55.892 12.4805 55.9936 11.9922 56.1967 11.5234C56.4077 11.0547 56.7084 10.6367 57.0991 10.2695C57.4897 9.90234 57.9623 9.61328 58.517 9.40234C59.0717 9.19141 59.6889 9.08594 60.3686 9.08594C61.1811 9.08594 61.9038 9.22266 62.5366 9.49609C63.1694 9.76172 63.6655 10.1953 64.0248 10.7969C64.392 11.3906 64.5756 12.1719 64.5756 13.1406V19.0586C64.5756 19.6445 64.6108 20.168 64.6811 20.6289C64.7592 21.082 64.8647 21.4766 64.9975 21.8125V22H62.2202C62.0952 21.6953 62.0014 21.3047 61.9389 20.8281C61.8764 20.3516 61.8452 19.8828 61.8452 19.4219ZM62.2084 14.2773L62.2202 16.0469H60.9077C60.517 16.0469 60.1655 16.1016 59.853 16.2109C59.5405 16.3125 59.2748 16.4609 59.0561 16.6562C58.8452 16.8438 58.6811 17.0742 58.5639 17.3477C58.4545 17.6211 58.3998 17.9219 58.3998 18.25C58.3998 18.6484 58.4545 18.9727 58.5639 19.2227C58.6811 19.4727 58.8491 19.6602 59.0678 19.7852C59.2944 19.9023 59.5678 19.9609 59.8881 19.9609C60.3256 19.9609 60.7045 19.8672 61.0248 19.6797C61.353 19.4844 61.603 19.25 61.7748 18.9766C61.9545 18.7031 62.0248 18.4531 61.9858 18.2266L62.6069 19.3633C62.5444 19.6602 62.4272 19.9727 62.2553 20.3008C62.0913 20.6289 61.8764 20.9414 61.6108 21.2383C61.3452 21.5352 61.0248 21.7773 60.6498 21.9648C60.2748 22.1445 59.8413 22.2344 59.3491 22.2344C58.6381 22.2344 58.0053 22.0859 57.4506 21.7891C56.8959 21.4922 56.4584 21.0664 56.1381 20.5117C55.8256 19.9492 55.6694 19.2773 55.6694 18.4961C55.6694 17.8633 55.7748 17.2891 55.9858 16.7734C56.1967 16.2578 56.5092 15.8164 56.9233 15.4492C57.3373 15.0742 57.8569 14.7852 58.4819 14.582C59.1147 14.3789 59.853 14.2773 60.6967 14.2773H62.2084ZM68.83 9.32031H71.5605L71.4667 13.7734C71.4355 15.0703 71.3066 16.1875 71.08 17.125C70.8534 18.0547 70.5566 18.8398 70.1894 19.4805C69.8222 20.1211 69.4042 20.6445 68.9355 21.0508C68.4667 21.4492 67.9667 21.7656 67.4355 22H66.662V19.7266L67.0253 19.7031C67.33 19.3359 67.5839 18.9727 67.787 18.6133C67.998 18.2461 68.1698 17.8438 68.3027 17.4062C68.4355 16.9609 68.5331 16.4453 68.5956 15.8594C68.6659 15.2734 68.7128 14.5781 68.7363 13.7734L68.83 9.32031ZM69.5214 9.32031H76.5409V22H73.8222V11.7461H69.5214V9.32031ZM66.123 19.7031H78.1113V25.7852H75.3925V22H68.8886V25.7852H66.1113L66.123 19.7031Z" fill="black"/>
<path d="M72.5 35L72.5 33.5L72.5 35ZM4.93928 33.9393C4.35349 34.5251 4.35349 35.4749 4.93928 36.0607L14.4852 45.6066C15.071 46.1924 16.0208 46.1924 16.6065 45.6066C17.1923 45.0208 17.1923 44.0711 16.6065 43.4853L8.12126 35L16.6065 26.5147C17.1923 25.9289 17.1923 24.9792 16.6065 24.3934C16.0208 23.8076 15.071 23.8076 14.4852 24.3934L4.93928 33.9393ZM80.9075 17.2747C85.3557 17.2747 87.7771 18.4307 88.8951 19.7489C89.9524 20.9954 90.1357 22.7472 89.2403 24.7836C87.415 28.9347 81.286 33.5 72.5 33.5L72.5 36.5C82.2139 36.5 89.585 31.4527 91.9865 25.9911C93.2045 23.2212 93.1831 20.1666 91.1831 17.8084C89.2438 15.5218 85.7555 14.2747 80.9075 14.2747L80.9075 17.2747ZM72.5 33.5L5.99994 33.5L5.99994 36.5L72.5 36.5L72.5 33.5Z" fill="black"/>
</g>
<defs>
<filter id="filter0_d_19_214" x="0.499939" y="-2" width="114.5" height="54.046" filterUnits="userSpaceOnUse" color-interpolation-filters="sRGB">
<feFlood flood-opacity="0" result="BackgroundImageFix"/>
<feColorMatrix in="SourceAlpha" type="matrix" values="0 0 0 0 0 0 0 0 0 0 0 0 0 0 0 0 0 0 127 0" result="hardAlpha"/>
<feOffset dy="2"/>
<feGaussianBlur stdDeviation="2"/>
<feComposite in2="hardAlpha" operator="out"/>
<feColorMatrix type="matrix" values="0 0 0 0 0 0 0 0 0 0 0 0 0 0 0 0 0 0 0.25 0"/>
<feBlend mode="normal" in2="BackgroundImageFix" result="effect1_dropShadow_19_214"/>
<feBlend mode="normal" in="SourceGraphic" in2="effect1_dropShadow_19_214" result="shape"/>
</filter>
</defs>
</svg>
