<svg width="1440" height="837" viewBox="0 0 1440 837" fill="none" xmlns="http://www.w3.org/2000/svg">
<rect width="1440" height="837" fill="#EBD8FF"/>
<rect y="301" width="682" height="217" fill="#E5D0FC"/>
<rect x="546" width="894" height="183" fill="#E5D0FC"/>
<rect x="638" y="536" width="802" height="183" fill="#E5D0FC"/>
<rect x="682" y="518" width="758" height="129" fill="#DAC8FF"/>
<rect y="54" width="758" height="129" fill="#DAC8FF"/>
<rect y="447" width="586" height="71" fill="#DAC8FF"/>
<path d="M488.5 425C488.5 425 489.419 444.575 484.167 451.039C478.856 457.576 469 457.627 469 457.627C469 457.627 478.88 458.308 484.167 465.471C488.913 471.901 488.5 489 488.5 489C488.5 489 489.295 471.77 494.071 465.471C499.405 458.438 508 457.627 508 457.627C508 457.627 499.393 458.165 494.071 451.039C489.134 444.428 488.5 425 488.5 425Z" stroke="black"/>
<path d="M1394.5 72C1394.5 72 1395.42 91.5749 1390.17 98.0392C1384.86 104.576 1375 104.627 1375 104.627C1375 104.627 1384.88 105.308 1390.17 112.471C1394.91 118.901 1394.5 136 1394.5 136C1394.5 136 1395.29 118.77 1400.07 112.471C1405.4 105.438 1414 104.627 1414 104.627C1414 104.627 1405.39 105.165 1400.07 98.0392C1395.13 91.4281 1394.5 72 1394.5 72Z" stroke="black"/>
<path d="M1374.5 647C1374.5 647 1375.42 666.575 1370.17 673.039C1364.86 679.576 1355 679.627 1355 679.627C1355 679.627 1364.88 680.308 1370.17 687.471C1374.91 693.901 1374.5 711 1374.5 711C1374.5 711 1375.29 693.77 1380.07 687.471C1385.4 680.438 1394 679.627 1394 679.627C1394 679.627 1385.39 680.165 1380.07 673.039C1375.13 666.428 1374.5 647 1374.5 647Z" stroke="black"/>
<path d="M508.5 404C508.5 404 508.503 404.059 508.507 404.17C508.561 405.478 508.997 413.972 511.214 417.02C513.807 420.583 518 420.314 518 420.314C518 420.314 513.813 420.719 511.214 424.235C508.887 427.385 508.5 436 508.5 436C508.5 436 508.701 427.451 506.389 424.235C503.814 420.654 499 420.314 499 420.314C499 420.314 503.801 420.288 506.389 417.02C508.749 414.039 508.551 405.483 508.507 404.17C508.502 404.059 508.5 404 508.5 404Z" fill="#EBEB0C" stroke="black"/>
<path d="M1384.5 136C1384.5 136 1384.5 136.059 1384.51 136.17C1384.56 137.478 1385 145.972 1387.21 149.02C1389.81 152.583 1394 152.314 1394 152.314C1394 152.314 1389.81 152.719 1387.21 156.235C1384.89 159.385 1384.5 168 1384.5 168C1384.5 168 1384.7 159.451 1382.39 156.235C1379.81 152.654 1375 152.314 1375 152.314C1375 152.314 1379.8 152.288 1382.39 149.02C1384.75 146.039 1384.55 137.483 1384.51 136.17C1384.5 136.059 1384.5 136 1384.5 136Z" fill="#923DEB" stroke="black"/>
<path d="M1368 122C1368 122 1368 122.044 1368 122.128C1368.04 123.108 1368.37 129.479 1370 131.765C1371.91 134.437 1375 134.235 1375 134.235C1375 134.235 1371.91 134.539 1370 137.176C1368.29 139.539 1368 146 1368 146C1368 146 1368.15 139.588 1366.44 137.176C1364.55 134.491 1361 134.235 1361 134.235C1361 134.235 1364.54 134.216 1366.44 131.765C1368.18 129.529 1368.04 123.112 1368 122.128C1368 122.044 1368 122 1368 122Z" fill="#EBEB0C" stroke="black"/>
<path d="M45.5 210C45.5 210 45.5027 210.059 45.5065 210.17C45.561 211.478 45.9968 219.972 48.2143 223.02C50.8069 226.583 55 226.314 55 226.314C55 226.314 50.8126 226.719 48.2143 230.235C45.8871 233.385 45.5 242 45.5 242C45.5 242 45.7012 233.451 43.3889 230.235C40.8136 226.654 36 226.314 36 226.314C36 226.314 40.8014 226.288 43.3889 223.02C45.7487 220.039 45.5515 211.483 45.5065 210.17C45.5019 210.059 45.5 210 45.5 210Z" fill="#EBEB0C" stroke="black"/>
<path d="M63.5 235C63.5 235 63.5024 235.054 63.5058 235.154C63.5546 236.339 63.9445 244.037 65.9286 246.799C68.2482 250.028 72 249.784 72 249.784C72 249.784 68.2534 250.151 65.9286 253.338C63.8464 256.192 63.5 264 63.5 264C63.5 264 63.68 256.252 61.6111 253.338C59.3069 250.093 55 249.784 55 249.784C55 249.784 59.296 249.761 61.6111 246.799C63.7225 244.098 63.5461 236.344 63.5058 235.154C63.5017 235.054 63.5 235 63.5 235Z" fill="#923DEB" stroke="black"/>
<path d="M469.5 388C469.5 388 469.503 388.059 469.507 388.17C469.561 389.478 469.997 397.972 472.214 401.02C474.807 404.583 479 404.314 479 404.314C479 404.314 474.813 404.719 472.214 408.235C469.887 411.385 469.5 420 469.5 420C469.5 420 469.701 411.451 467.389 408.235C464.814 404.654 460 404.314 460 404.314C460 404.314 464.801 404.288 467.389 401.02C469.749 398.039 469.551 389.483 469.507 388.17C469.502 388.059 469.5 388 469.5 388Z" fill="#923DEB" stroke="black"/>
<path d="M971.5 536C971.5 536 971.503 536.059 971.507 536.17C971.561 537.478 971.997 545.972 974.214 549.02C976.807 552.583 981 552.314 981 552.314C981 552.314 976.813 552.719 974.214 556.235C971.887 559.385 971.5 568 971.5 568C971.5 568 971.701 559.451 969.389 556.235C966.814 552.654 962 552.314 962 552.314C962 552.314 966.801 552.288 969.389 549.02C971.749 546.039 971.551 537.483 971.507 536.17C971.502 536.059 971.5 536 971.5 536Z" fill="#923DEB" stroke="black"/>
<path d="M941.5 552C941.5 552 941.503 552.059 941.507 552.17C941.561 553.478 941.997 561.972 944.214 565.02C946.807 568.583 951 568.314 951 568.314C951 568.314 946.813 568.719 944.214 572.235C941.887 575.385 941.5 584 941.5 584C941.5 584 941.701 575.451 939.389 572.235C936.814 568.654 932 568.314 932 568.314C932 568.314 936.801 568.288 939.389 565.02C941.749 562.039 941.551 553.483 941.507 552.17C941.502 552.059 941.5 552 941.5 552Z" fill="#EBEB0C" stroke="black"/>
<path d="M1345.5 687C1345.5 687 1345.5 687.059 1345.51 687.17C1345.56 688.478 1346 696.972 1348.21 700.02C1350.81 703.583 1355 703.314 1355 703.314C1355 703.314 1350.81 703.719 1348.21 707.235C1345.89 710.385 1345.5 719 1345.5 719C1345.5 719 1345.7 710.451 1343.39 707.235C1340.81 703.654 1336 703.314 1336 703.314C1336 703.314 1340.8 703.288 1343.39 700.02C1345.75 697.039 1345.55 688.483 1345.51 687.17C1345.5 687.059 1345.5 687 1345.5 687Z" fill="#EBEB0C" stroke="black"/>
<path d="M527.5 121C527.5 121 528.372 139.963 523.389 146.225C518.35 152.558 509 152.608 509 152.608C509 152.608 518.374 153.267 523.389 160.206C527.892 166.436 527.5 183 527.5 183C527.5 183 528.254 166.308 532.786 160.206C537.846 153.393 546 152.608 546 152.608C546 152.608 537.834 153.129 532.786 146.225C528.102 139.821 527.5 121 527.5 121Z" stroke="black"/>
<path d="M87.5 487C87.5 487 88.3719 505.963 83.3889 512.225C78.3502 518.558 69 518.608 69 518.608C69 518.608 78.3738 519.267 83.3889 526.206C87.8918 532.436 87.5 549 87.5 549C87.5 549 88.2539 532.308 92.7857 526.206C97.8456 519.393 106 518.608 106 518.608C106 518.608 97.8344 519.129 92.7857 512.225C88.1017 505.821 87.5 487 87.5 487Z" stroke="black"/>
<path d="M195 29C195 29 195.707 44.2929 191.667 49.3431C187.581 54.4498 180 54.4902 180 54.4902C180 54.4902 187.6 55.0221 191.667 60.6176C195.318 65.6418 195 79 195 79C195 79 195.611 65.5388 199.286 60.6176C203.388 55.1231 210 54.4902 210 54.4902C210 54.4902 203.379 54.9102 199.286 49.3431C195.488 44.1782 195 29 195 29Z" stroke="black"/>
<path d="M36 688C36 688 36.0026 688.056 36.0062 688.159C36.0578 689.386 36.4707 697.349 38.5714 700.206C41.0275 703.546 45 703.294 45 703.294C45 703.294 41.033 703.674 38.5714 706.971C36.3668 709.923 36 718 36 718C36 718 36.1906 709.985 34 706.971C31.5602 703.613 27 703.294 27 703.294C27 703.294 31.5487 703.27 34 700.206C36.2356 697.411 36.0488 689.39 36.0062 688.159C36.0018 688.056 36 688 36 688Z" fill="#EBEB0C" stroke="black"/>
<path d="M48 635C48 635 48.0048 635.107 48.0116 635.308C48.1092 637.679 48.889 653.075 52.8571 658.598C57.4965 665.056 65 664.569 65 664.569C65 664.569 57.5067 665.303 52.8571 671.676C48.6928 677.385 48 693 48 693C48 693 48.3601 677.504 44.2222 671.676C39.6138 665.186 31 664.569 31 664.569C31 664.569 39.592 664.522 44.2222 658.598C48.445 653.195 48.0921 637.688 48.0116 635.308C48.0034 635.107 48 635 48 635Z" fill="#923DEB" stroke="black"/>
<path d="M1232 226C1232 226 1232.66 241.293 1228.89 246.343C1225.08 251.45 1218 251.49 1218 251.49C1218 251.49 1225.09 252.022 1228.89 257.618C1232.3 262.642 1232 276 1232 276C1232 276 1232.57 262.539 1236 257.618C1239.83 252.123 1246 251.49 1246 251.49C1246 251.49 1239.82 251.91 1236 246.343C1232.46 241.178 1232 226 1232 226Z" stroke="black"/>
<path d="M561.5 195C561.5 195 561.504 195.057 561.509 195.165C561.58 196.432 562.154 204.661 565.071 207.613C568.483 211.064 574 210.804 574 210.804C574 210.804 568.49 211.196 565.071 214.603C562.009 217.654 561.5 226 561.5 226C561.5 226 561.765 217.718 558.722 214.603C555.334 211.134 549 210.804 549 210.804C549 210.804 555.318 210.779 558.722 207.613C561.827 204.725 561.568 196.437 561.509 195.165C561.502 195.057 561.5 195 561.5 195Z" fill="#EBEB0C" stroke="black"/>
</svg>
